HIERARCHY
ROOT hip
{
  OFFSET 0.0 0.0 0.0
  CHANNELS 6 Xposition Yposition Zposition Zrotation Yrotation Xrotation
  JOINT abdomen
  {
    OFFSET 0.0 20.6881 -0.73152
    CHANNELS 3 Zrotation Xrotation Yrotation
    JOINT chest
    {
      OFFSET 0.0 11.7043 -0.48768
      CHANNELS 3 Zrotation Xrotation Yrotation
      JOINT neck
      {
        OFFSET 0.0 22.1894 -2.19456
        CHANNELS 3 Zrotation Xrotation Yrotation
        JOINT head
        {
          OFFSET -0.24384 7.07133 1.2192
          CHANNELS 3 Zrotation Xrotation Yrotation
          JOINT leftEye
          {
            OFFSET 4.14528 8.04674 8.04672
            CHANNELS 3 Zrotation Xrotation Yrotation
            End Site
            {
              OFFSET 1.0 0.0 0.0
            }
          }
          JOINT rightEye
          {
            OFFSET -3.6576 8.04674 8.04672
            CHANNELS 3 Zrotation Xrotation Yrotation
            End Site
            {
              OFFSET 1.0 0.0 0.0
            }
          }
        }
      }
      JOINT rCollar
      {
        OFFSET -2.68224 19.2634 -4.8768
        CHANNELS 3 Zrotation Xrotation Yrotation
        JOINT rShldr
        {
          OFFSET -8.77824 -1.95073 1.46304
          CHANNELS 3 Zrotation Xrotation Yrotation
          JOINT rForeArm
          {
            OFFSET -28.1742 -1.7115 0.48768
            CHANNELS 3 Zrotation Xrotation Yrotation
            JOINT rHand
            {
              OFFSET -22.5879 0.773209 7.07136
              CHANNELS 3 Zrotation Xrotation Yrotation
              JOINT rThumb1
              {
                OFFSET -1.2192 -0.487915 3.41376
                CHANNELS 3 Zrotation Xrotation Yrotation
                JOINT rThumb2
                {
                  OFFSET -3.37035 -0.52449 3.41376
                  CHANNELS 3 Zrotation Xrotation Yrotation
                  End Site
                  {
                    OFFSET -1.78271 -1.18214 1.43049
                  }
                }
              }
              JOINT rIndex1
              {
                OFFSET -7.75947 0.938293 5.60832
                CHANNELS 3 Zrotation Xrotation Yrotation
                JOINT rIndex2
                {
                  OFFSET -2.54057 -0.884171 1.56538
                  CHANNELS 3 Zrotation Xrotation Yrotation
                  End Site
                  {
                    OFFSET -1.62519 -0.234802 1.16502
                  }
                }
              }
              JOINT rMid1
              {
                OFFSET -8.24714 1.18213 3.41376
                CHANNELS 3 Zrotation Xrotation Yrotation
                JOINT rMid2
                {
                  OFFSET -3.10165 -0.590103 1.0647
                  CHANNELS 3 Zrotation Xrotation Yrotation
                  End Site
                  {
                    OFFSET -2.48547 -0.328903 0.83742
                  }
                }
              }
              JOINT rRing1
              {
                OFFSET -8.82822 0.546677 1.51678
                CHANNELS 3 Zrotation Xrotation Yrotation
                JOINT rRing2
                {
                  OFFSET -2.60934 -0.819778 -0.0198488
                  CHANNELS 3 Zrotation Xrotation Yrotation
                  End Site
                  {
                    OFFSET -2.33842 -0.294052 0.168128
                  }
                }
              }
              JOINT rPinky1
              {
                OFFSET -8.27202 -0.0477905 -0.4584
                CHANNELS 3 Zrotation Xrotation Yrotation
                JOINT rPinky2
                {
                  OFFSET -1.82734 -0.647385 -0.700984
                  CHANNELS 3 Zrotation Xrotation Yrotation
                  End Site
                  {
                    OFFSET -1.69225 -0.51767 -0.607171
                  }
                }
              }
            }
          }
        }
      }
      JOINT lCollar
      {
        OFFSET 2.68224 19.2634 -4.8768
        CHANNELS 3 Zrotation Xrotation Yrotation
        JOINT lShldr
        {
          OFFSET 8.77824 -1.95073 1.46304
          CHANNELS 3 Zrotation Xrotation Yrotation
          JOINT lForeArm
          {
            OFFSET 28.1742 -1.7115 0.48768
            CHANNELS 3 Zrotation Xrotation Yrotation
            JOINT lHand
            {
              OFFSET 22.5879 0.773209 7.07136
              CHANNELS 3 Zrotation Xrotation Yrotation
              JOINT lThumb1
              {
                OFFSET 1.2192 -0.487915 3.41376
                CHANNELS 3 Zrotation Xrotation Yrotation
                JOINT lThumb2
                {
                  OFFSET 3.37035 -0.52449 3.41376
                  CHANNELS 3 Zrotation Xrotation Yrotation
                  End Site
                  {
                    OFFSET 1.78271 -1.18214 1.43049
                  }
                }
              }
              JOINT lIndex1
              {
                OFFSET 7.75947 0.938293 5.60832
                CHANNELS 3 Zrotation Xrotation Yrotation
                JOINT lIndex2
                {
                  OFFSET 2.54057 -0.884171 1.56538
                  CHANNELS 3 Zrotation Xrotation Yrotation
                  End Site
                  {
                    OFFSET 1.62519 -0.234802 1.16502
                  }
                }
              }
              JOINT lMid1
              {
                OFFSET 8.24714 1.18213 3.41376
                CHANNELS 3 Zrotation Xrotation Yrotation
                JOINT lMid2
                {
                  OFFSET 3.10165 -0.590103 1.0647
                  CHANNELS 3 Zrotation Xrotation Yrotation
                  End Site
                  {
                    OFFSET 2.48547 -0.328903 0.83742
                  }
                }
              }
              JOINT lRing1
              {
                OFFSET 8.82822 0.546677 1.51678
                CHANNELS 3 Zrotation Xrotation Yrotation
                JOINT lRing2
                {
                  OFFSET 2.60934 -0.819778 -0.0198488
                  CHANNELS 3 Zrotation Xrotation Yrotation
                  End Site
                  {
                    OFFSET 2.33842 -0.294052 0.168128
                  }
                }
              }
              JOINT lPinky1
              {
                OFFSET 8.27202 -0.0477905 -0.4584
                CHANNELS 3 Zrotation Xrotation Yrotation
                JOINT lPinky2
                {
                  OFFSET 1.82734 -0.647385 -0.700984
                  CHANNELS 3 Zrotation Xrotation Yrotation
                  End Site
                  {
                    OFFSET 1.69225 -0.51767 -0.607171
                  }
                }
              }
            }
          }
        }
      }
    }
  }
  JOINT rButtock
  {
    OFFSET -8.77824 4.35084 1.2192
    CHANNELS 3 Zrotation Xrotation Yrotation
    JOINT rThigh
    {
      OFFSET 0.0 -1.70687 -2.19456
      CHANNELS 3 Zrotation Xrotation Yrotation
      JOINT rShin
      {
        OFFSET 0.0 -36.8199 0.73152
        CHANNELS 3 Zrotation Xrotation Yrotation
        JOINT rFoot
        {
          OFFSET 0.73152 -45.1104 -5.12064
          CHANNELS 3 Zrotation Xrotation Yrotation
          End Site
          {
            OFFSET -1.1221 -3.69964 12.103
          }
        }
      }
    }
  }
  JOINT lButtock
  {
    OFFSET 8.77824 4.35084 1.2192
    CHANNELS 3 Zrotation Xrotation Yrotation
    JOINT lThigh
    {
      OFFSET 0.0 -1.70687 -2.19456
      CHANNELS 3 Zrotation Xrotation Yrotation
      JOINT lShin
      {
        OFFSET 0.0 -36.8199 0.73152
        CHANNELS 3 Zrotation Xrotation Yrotation
        JOINT lFoot
        {
          OFFSET -0.73152 -45.1104 -5.12064
          CHANNELS 3 Zrotation Xrotation Yrotation
          End Site
          {
            OFFSET 1.1221 -3.69964 12.103
          }
        }
      }
    }
  }
}
MOTION
Frames: 4
Frame Time: 0.00833333
-8.151899999999998 84.6383 -7.69523 -173.766 -80.0346 170.089 0.0415748 1.97452 0.906829 0.206662 -0.0303777 0.276288 0.252002 2.70468 -1.61117 1.05493 -6.61524 -3.03586 -0.0 0.0 0.0 -0.0 0.0 0.0 -6.48523e-15 -4.4866e-14 -1.68163e-14 22.0276 9.14633 0.141596 -3.85902 -1.68625 6.09971 0.0106181 -2.55195 -0.357986 8.41884e-11 -2.22825e-11 4.17925e-10 1.4358e-10 -3.9636e-11 7.23508e-10 8.41922e-11 -2.22836e-11 4.17919e-10 7.73091 5.47488 0.417314 8.41877e-11 -2.22839e-11 4.17928e-10 2.90554 0.965183 0.102902 8.41911e-11 -2.22837e-11 4.17927e-10 10.2786 0.731801 0.0259123 8.41835e-11 -2.2281e-11 4.17934e-10 2.22167 -0.733487 -0.20892 -6.57986e-15 -4.48651e-14 -1.71351e-14 -21.3358 6.19163 0.904124 4.40189 -2.03763 -6.8342 -0.000996267 0.70016 -0.0983745 2.02835e-10 -3.58849e-11 -2.68189e-10 3.49248e-10 -6.22937e-11 -4.64635e-10 2.02829e-10 -3.58846e-11 -2.68183e-10 -7.73091 5.47488 -0.417314 2.02836e-10 -3.58858e-11 -2.68195e-10 -2.90554 0.965183 -0.102902 2.02835e-10 -3.58852e-11 -2.68188e-10 -10.2786 0.731801 -0.0259123 2.02841e-10 -3.58833e-11 -2.68195e-10 -2.22167 -0.733487 0.20892 -2.03217e-16 0.0 -3.88251e-19 2.32244 -4.49375 4.37824 0.0514494 7.86382 0.184549 -2.02542 -6.38824 -8.9239 2.03217e-16 0.0 3.88251e-19 -0.205072 -2.71621 -4.49869 -0.0429595 5.34273 -0.142757 1.62106 -3.33648 8.19843
-8.134799999999998 84.625 -7.63657 -174.774 -80.1949 171.218 -0.510378 4.06959 1.85558 0.272541 -0.056273 0.543267 0.682251 5.55823 -3.33013 1.39382 -13.5487 -6.3881 -0.0 0.0 0.0 -0.0 0.0 0.0 -1.13686e-14 -1.2384e-13 -3.7679e-14 45.2583 18.7292 0.306486 -7.52406 -3.38661 12.5247 -0.0143623 -5.11756 -0.720691 1.98147e-10 -4.7286e-11 8.67611e-10 3.38511e-10 -8.41292e-11 1.50213e-09 1.98151e-10 -4.72886e-11 8.67605e-10 7.73091 5.47488 0.417314 1.98146e-10 -4.72893e-11 8.67616e-10 2.90554 0.965183 0.102902 1.9815e-10 -4.72883e-11 8.67612e-10 10.2786 0.731801 0.0259123 1.98141e-10 -4.72857e-11 8.67618e-10 2.22167 -0.733487 -0.20892 -1.14613e-14 -1.23839e-13 -3.80238e-14 -44.1061 12.7284 1.89445 8.52658 -4.09194 -14.08 0.000566062 1.44089 -0.202499 4.61429e-10 -1.01978e-10 -5.73636e-10 7.94728e-10 -1.76945e-10 -9.93909e-10 4.61424e-10 -1.01978e-10 -5.7363e-10 -7.73091 5.47488 -0.417314 4.61432e-10 -1.0198e-10 -5.73645e-10 -2.90554 0.965183 -0.102902 4.6143e-10 -1.01979e-10 -5.73637e-10 -10.2786 0.731801 -0.0259123 4.61436e-10 -1.01976e-10 -5.73648e-10 -2.22167 -0.733487 0.20892 -2.03217e-16 0.0 -3.88251e-19 3.89548 -4.54284 9.08972 0.0666884 13.5951 0.398905 -6.55768 -14.5834 -18.9778 2.03217e-16 0.0 3.88251e-19 -0.37929 -3.0018 -9.27771 -0.0440183 12.2294 -0.370852 5.03024 -10.26 17.2574
-8.111699999999999 84.6366 -7.61155 -174.789 -80.3353 171.367 -1.08669 5.92459 2.70394 0.337274 -0.0803231 0.779766 1.21564 8.08826 -4.87676 0.961881 -19.6159 -9.6094 -0.0 0.0 0.0 -0.0 0.0 0.0 -1.667e-14 -1.34606e-13 -5.07472e-14 65.9325 27.4383 0.472545 -10.5171 -4.82985 18.3587 -0.06454 -7.65465 -1.08254 2.82388e-10 -6.69187e-11 1.25318e-09 4.82234e-10 -1.19023e-10 2.1695e-09 2.82393e-10 -6.69223e-11 1.25318e-09 7.73091 5.47488 0.417314 2.82388e-10 -6.69234e-11 1.25319e-09 2.90554 0.965183 0.102902 2.82391e-10 -6.69218e-11 1.25319e-09 10.2786 0.731801 0.0259123 2.82382e-10 -6.69194e-11 1.25319e-09 2.22167 -0.733487 -0.20892 -1.67603e-14 -1.34606e-13 -5.11071e-14 -64.6206 18.5559 2.84454 11.7758 -5.76574 -20.5985 0.00422818 2.10046 -0.2953 6.38306e-10 -1.07676e-10 -8.0516e-10 1.0992e-09 -1.86913e-10 -1.39495e-09 6.38302e-10 -1.07676e-10 -8.05153e-10 -7.73091 5.47488 -0.417314 6.3831e-10 -1.07679e-10 -8.05171e-10 -2.90554 0.965183 -0.102902 6.38307e-10 -1.07677e-10 -8.05164e-10 -10.2786 0.731801 -0.0259123 6.38315e-10 -1.07674e-10 -8.05176e-10 -2.22167 -0.733487 0.20892 -2.03217e-16 0.0 -3.88251e-19 5.28297 -4.57249 13.2828 0.0419301 18.7118 0.602801 -13.1387 -20.7135 -28.8094 2.03217e-16 0.0 3.88251e-19 -0.59734 -3.23932 -13.5494 0.0039076 18.3594 -0.588319 9.94468 -15.6496 25.8269
-8.091699999999989 84.6429 -7.63499 -173.7 -80.3774 170.374 -1.59111 7.18505 3.28888 0.398691 -0.0997657 0.940063 1.67921 9.83436 -5.95106 0.202081 -23.7385 -12.0228 -0.0 0.0 0.0 -0.0 0.0 0.0 -2.30163e-14 2.51463e-14 -4.4329e-14 80.3278 33.9633 0.597049 -12.541 -5.83529 22.6619 -0.127307 -10.1211 -1.43756 2.92336e-10 -7.31241e-11 1.47848e-09 4.97936e-10 -1.29916e-10 2.55878e-09 2.92341e-10 -7.31277e-11 1.47847e-09 7.73091 5.47488 0.417314 2.92335e-10 -7.31293e-11 1.47849e-09 2.90554 0.965183 0.102902 2.92339e-10 -7.31275e-11 1.47848e-09 10.2786 0.731801 0.0259123 2.92329e-10 -7.31253e-11 1.47849e-09 2.22167 -0.733487 -0.20892 -2.31033e-14 2.51461e-14 -4.46769e-14 -79.0555 22.628 3.56942 13.8276 -6.81622 -25.2079 0.0080265 2.55715 -0.359625 6.10891e-10 3.76132e-11 -8.51877e-10 1.05115e-09 6.48292e-11 -1.47539e-09 6.10888e-10 3.76136e-11 -8.5187e-10 -7.73091 5.47488 -0.417314 6.10895e-10 3.76109e-11 -8.51889e-10 -2.90554 0.965183 -0.102902 6.10892e-10 3.7613e-11 -8.51882e-10 -10.2786 0.731801 -0.0259123 6.10901e-10 3.7616e-11 -8.51896e-10 -2.22167 -0.733487 0.20892 -2.03217e-16 0.0 -3.88251e-19 6.18884 -4.61477 16.1793 0.000991591 22.2932 0.756431 -19.0955 -24.0135 -36.2219 2.03217e-16 0.0 3.88251e-19 -0.832982 -3.40876 -16.548 0.0671313 22.5985 -0.751072 14.3523 -18.7344 32.1248
